HIERARCHY
ROOT newVegas:Hips
{
	OFFSET 0.000000 96.479958 0.000000
	CHANNELS 6 Xposition Yposition Zposition Xrotation Yrotation Zrotation
	JOINT newVegas:Pelvis
	{
		OFFSET 0.000000 0.000000 0.000000
		CHANNELS 3 Xrotation Yrotation Zrotation
		JOINT newVegas:LeftUpLeg
		{
			OFFSET 18.735201 -5.666702 -4.541200
			CHANNELS 3 Xrotation Yrotation Zrotation
			JOINT newVegas:LeftLeg
			{
				OFFSET -0.021200 -31.938179 0.493100
				CHANNELS 3 Xrotation Yrotation Zrotation
				JOINT newVegas:LeftFoot
				{
					OFFSET 0.021200 -31.938179 -4.336299
					CHANNELS 3 Xrotation Yrotation Zrotation
					JOINT newVegas:LeftToeBase
					{
						OFFSET 0.943001 -26.722000 15.023500
						CHANNELS 3 Xrotation Yrotation Zrotation
						End Site
						{
							OFFSET 0.000000 30.670183 0.000000
						}
					}
				}
				JOINT newVegas:Left_PantLeg
				{
					OFFSET 0.663870 -9.044666 -1.108900
					CHANNELS 3 Xrotation Yrotation Zrotation
					End Site
					{
						OFFSET 1.415995 20.635357 0.000000
					}
				}
			}
		}
		JOINT newVegas:RightUpLeg
		{
			OFFSET -18.735201 -5.666702 -4.541200
			CHANNELS 3 Xrotation Yrotation Zrotation
			JOINT newVegas:RightLeg
			{
				OFFSET 0.018946 -31.938133 0.493100
				CHANNELS 3 Xrotation Yrotation Zrotation
				JOINT newVegas:RightFoot
				{
					OFFSET -0.018946 -31.938126 -4.336299
					CHANNELS 3 Xrotation Yrotation Zrotation
					JOINT newVegas:RightToeBase
					{
						OFFSET -0.943001 -26.722004 15.023500
						CHANNELS 3 Xrotation Yrotation Zrotation
						End Site
						{
							OFFSET 0.000000 30.670187 0.000000
						}
					}
				}
				JOINT newVegas:Right_PantLeg
				{
					OFFSET -0.661674 -9.044716 -1.108900
					CHANNELS 3 Xrotation Yrotation Zrotation
					End Site
					{
						OFFSET -1.415958 20.635269 0.000000
					}
				}
			}
		}
	}
	JOINT newVegas:Spine
	{
		OFFSET 0.000000 10.199997 -0.299500
		CHANNELS 3 Xrotation Yrotation Zrotation
		JOINT newVegas:Spine1
		{
			OFFSET 0.000000 11.900002 -1.516600
			CHANNELS 3 Xrotation Yrotation Zrotation
			JOINT newVegas:Spine2
			{
				OFFSET 0.000000 13.600006 -2.842500
				CHANNELS 3 Xrotation Yrotation Zrotation
				JOINT newVegas:Neck
				{
					OFFSET 0.000000 9.624100 -2.890100
					CHANNELS 3 Xrotation Yrotation Zrotation
					JOINT newVegas:Head
					{
						OFFSET 0.000000 14.068802 -1.351900
						CHANNELS 3 Xrotation Yrotation Zrotation
						JOINT newVegas:Hair_Back
						{
							OFFSET 0.000000 3.231903 -17.524799
							CHANNELS 3 Xrotation Yrotation Zrotation
							End Site
							{
								OFFSET 0.000000 19.849884 0.000000
							}
						}
						JOINT newVegas:Hair_Front
						{
							OFFSET 0.000000 31.260406 4.573800
							CHANNELS 3 Xrotation Yrotation Zrotation
							JOINT newVegas:Hair_Front1
							{
								OFFSET 0.000000 2.284103 11.993300
								CHANNELS 3 Xrotation Yrotation Zrotation
								JOINT newVegas:Hair_Front2
								{
									OFFSET 0.000000 2.284103 11.993300
									CHANNELS 3 Xrotation Yrotation Zrotation
									End Site
									{
										OFFSET 0.000000 12.208862 0.000000
									}
								}
							}
						}
						JOINT newVegas:Jowel
						{
							OFFSET 0.000000 -7.458206 6.864100
							CHANNELS 3 Xrotation Yrotation Zrotation
							End Site
							{
								OFFSET 0.000000 19.849884 0.000000
							}
						}
					}
				}
				JOINT newVegas:LeftShoulder
				{
					OFFSET 15.263000 10.923401 -0.547700
					CHANNELS 3 Xrotation Yrotation Zrotation
					JOINT newVegas:LeftArm
					{
						OFFSET 25.438599 -2.830597 -13.032500
						CHANNELS 3 Xrotation Yrotation Zrotation
						JOINT newVegas:LeftForeArm
						{
							OFFSET 29.960503 0.000000 0.000000
							CHANNELS 3 Xrotation Yrotation Zrotation
							JOINT newVegas:LeftHand
							{
								OFFSET 27.849251 0.000000 0.000000
								CHANNELS 3 Xrotation Yrotation Zrotation
								JOINT newVegas:LeftHandThumb1
								{
									OFFSET 4.487587 -3.305161 6.305391
									CHANNELS 3 Xrotation Yrotation Zrotation
									JOINT newVegas:LeftHandThumb2
									{
										OFFSET 5.480453 -3.164139 3.164143
										CHANNELS 3 Xrotation Yrotation Zrotation
										JOINT newVegas:LeftHandThumb3
										{
											OFFSET 5.159721 -2.978973 2.978967
											CHANNELS 3 Xrotation Yrotation Zrotation
											End Site
											{
												OFFSET 2.494507 5.926697 1.738678
											}
										}
									}
								}
								JOINT newVegas:LeftHandIndex1
								{
									OFFSET 18.578728 -0.527832 5.208049
									CHANNELS 3 Xrotation Yrotation Zrotation
									JOINT newVegas:LeftHandIndex2
									{
										OFFSET 3.192009 0.000000 0.000000
										CHANNELS 3 Xrotation Yrotation Zrotation
										JOINT newVegas:LeftHandIndex3
										{
											OFFSET 3.835129 0.000000 0.000000
											CHANNELS 3 Xrotation Yrotation Zrotation
											End Site
											{
												OFFSET -0.034599 3.816971 0.371180
											}
										}
									}
								}
								JOINT newVegas:LeftHandMiddle1
								{
									OFFSET 18.476105 0.000000 0.000000
									CHANNELS 3 Xrotation Yrotation Zrotation
									JOINT newVegas:LeftHandMiddle2
									{
										OFFSET 3.324875 0.000000 0.000000
										CHANNELS 3 Xrotation Yrotation Zrotation
										JOINT newVegas:LeftHandMiddle3
										{
											OFFSET 4.596550 0.000000 0.000000
											CHANNELS 3 Xrotation Yrotation Zrotation
											End Site
											{
												OFFSET 0.057701 4.578827 0.399218
											}
										}
									}
								}
								JOINT newVegas:LeftHandRing1
								{
									OFFSET 17.732719 0.121887 -4.201567
									CHANNELS 3 Xrotation Yrotation Zrotation
									JOINT newVegas:LeftHandRing2
									{
										OFFSET 2.733170 0.000000 0.000000
										CHANNELS 3 Xrotation Yrotation Zrotation
										JOINT newVegas:LeftHandRing3
										{
											OFFSET 3.178268 0.000000 0.000000
											CHANNELS 3 Xrotation Yrotation Zrotation
											End Site
											{
												OFFSET 0.119102 3.170624 0.185394
											}
										}
									}
								}
								JOINT newVegas:LeftHandPinky1
								{
									OFFSET 15.989624 -0.606689 -7.535461
									CHANNELS 3 Xrotation Yrotation Zrotation
									JOINT newVegas:LeftHandPinky2
									{
										OFFSET 2.538986 0.000000 0.000000
										CHANNELS 3 Xrotation Yrotation Zrotation
										JOINT newVegas:LeftHandPinky3
										{
											OFFSET 2.593102 0.000000 0.000000
											CHANNELS 3 Xrotation Yrotation Zrotation
											End Site
											{
												OFFSET -0.150902 2.584198 0.152708
											}
										}
									}
								}
							}
							JOINT newVegas:Left_Sleeve
							{
								OFFSET 0.267448 -0.649796 0.577675
								CHANNELS 3 Xrotation Yrotation Zrotation
								End Site
								{
									OFFSET 0.000000 15.991241 0.000000
								}
							}
							JOINT newVegas:Left_CapeC
							{
								OFFSET 15.715958 -8.608795 -6.935905
								CHANNELS 3 Xrotation Yrotation Zrotation
								JOINT newVegas:Left_CapeC1
								{
									OFFSET 0.000000 -8.688499 0.000000
									CHANNELS 3 Xrotation Yrotation Zrotation
									End Site
									{
										OFFSET 0.000000 8.688499 0.000000
									}
								}
							}
						}
						JOINT newVegas:Left_CapeB
						{
							OFFSET 26.118385 -8.608795 -7.079235
							CHANNELS 3 Xrotation Yrotation Zrotation
							JOINT newVegas:Left_CapeB1
							{
								OFFSET 0.000000 -8.688499 0.000000
								CHANNELS 3 Xrotation Yrotation Zrotation
								End Site
								{
									OFFSET 0.000000 8.688499 0.000000
								}
							}
						}
						JOINT newVegas:Left_CapeA
						{
							OFFSET 5.115639 -8.608795 -10.395809
							CHANNELS 3 Xrotation Yrotation Zrotation
							JOINT newVegas:Left_CapeA1
							{
								OFFSET 0.000000 -8.688499 0.000000
								CHANNELS 3 Xrotation Yrotation Zrotation
								End Site
								{
									OFFSET 0.000000 8.688499 0.000000
								}
							}
						}
					}
				}
				JOINT newVegas:RightShoulder
				{
					OFFSET -15.263000 10.923401 -0.547700
					CHANNELS 3 Xrotation Yrotation Zrotation
					JOINT newVegas:RightArm
					{
						OFFSET -25.438599 -2.830597 -13.032500
						CHANNELS 3 Xrotation Yrotation Zrotation
						JOINT newVegas:RightForeArm
						{
							OFFSET -29.960503 0.000000 0.000000
							CHANNELS 3 Xrotation Yrotation Zrotation
							JOINT newVegas:RightHand
							{
								OFFSET -27.849251 0.000000 0.000000
								CHANNELS 3 Xrotation Yrotation Zrotation
								JOINT newVegas:RightHandThumb1
								{
									OFFSET -4.487587 -3.305161 6.305391
									CHANNELS 3 Xrotation Yrotation Zrotation
									JOINT newVegas:RightHandThumb2
									{
										OFFSET -5.480453 -3.164139 3.164143
										CHANNELS 3 Xrotation Yrotation Zrotation
										JOINT newVegas:RightHandThumb3
										{
											OFFSET -5.159721 -2.978973 2.978967
											CHANNELS 3 Xrotation Yrotation Zrotation
											End Site
											{
												OFFSET -2.494507 5.926697 1.738678
											}
										}
									}
								}
								JOINT newVegas:RightHandIndex1
								{
									OFFSET -18.578728 -0.527832 5.208049
									CHANNELS 3 Xrotation Yrotation Zrotation
									JOINT newVegas:RightHandIndex2
									{
										OFFSET -3.192009 0.000000 0.000000
										CHANNELS 3 Xrotation Yrotation Zrotation
										JOINT newVegas:RightHandIndex3
										{
											OFFSET -3.835129 0.000000 0.000000
											CHANNELS 3 Xrotation Yrotation Zrotation
											End Site
											{
												OFFSET 0.034599 3.816971 0.371180
											}
										}
									}
								}
								JOINT newVegas:RightHandMiddle1
								{
									OFFSET -18.476105 0.000000 0.000000
									CHANNELS 3 Xrotation Yrotation Zrotation
									JOINT newVegas:RightHandMiddle2
									{
										OFFSET -3.324875 0.000000 0.000000
										CHANNELS 3 Xrotation Yrotation Zrotation
										JOINT newVegas:RightHandMiddle3
										{
											OFFSET -4.596550 0.000000 0.000000
											CHANNELS 3 Xrotation Yrotation Zrotation
											End Site
											{
												OFFSET -0.057701 4.578827 0.399218
											}
										}
									}
								}
								JOINT newVegas:RightHandRing1
								{
									OFFSET -17.732719 0.121887 -4.201567
									CHANNELS 3 Xrotation Yrotation Zrotation
									JOINT newVegas:RightHandRing2
									{
										OFFSET -2.733170 0.000000 0.000000
										CHANNELS 3 Xrotation Yrotation Zrotation
										JOINT newVegas:RightHandRing3
										{
											OFFSET -3.178268 0.000000 0.000000
											CHANNELS 3 Xrotation Yrotation Zrotation
											End Site
											{
												OFFSET -0.119102 3.170624 0.185394
											}
										}
									}
								}
								JOINT newVegas:RightHandPinky1
								{
									OFFSET -15.989624 -0.606689 -7.535461
									CHANNELS 3 Xrotation Yrotation Zrotation
									JOINT newVegas:RightHandPinky2
									{
										OFFSET -2.538986 0.000000 0.000000
										CHANNELS 3 Xrotation Yrotation Zrotation
										JOINT newVegas:RightHandPinky3
										{
											OFFSET -2.593102 0.000000 0.000000
											CHANNELS 3 Xrotation Yrotation Zrotation
											End Site
											{
												OFFSET 0.150902 2.584198 0.152708
											}
										}
									}
								}
							}
							JOINT newVegas:Right_CapeC
							{
								OFFSET -15.715958 -8.608795 -6.935905
								CHANNELS 3 Xrotation Yrotation Zrotation
								JOINT newVegas:Right_CapeC1
								{
									OFFSET 0.000000 -8.688499 0.000000
									CHANNELS 3 Xrotation Yrotation Zrotation
									End Site
									{
										OFFSET 0.000000 8.688499 0.000000
									}
								}
							}
							JOINT newVegas:Right_Sleeve
							{
								OFFSET -0.267448 -0.649994 0.577675
								CHANNELS 3 Xrotation Yrotation Zrotation
								End Site
								{
									OFFSET 0.000000 15.991302 0.000000
								}
							}
						}
						JOINT newVegas:Right_CapeA
						{
							OFFSET -5.115540 -8.608795 -10.395824
							CHANNELS 3 Xrotation Yrotation Zrotation
							JOINT newVegas:Right_CapeA1
							{
								OFFSET 0.000000 -8.688499 0.000000
								CHANNELS 3 Xrotation Yrotation Zrotation
								End Site
								{
									OFFSET 0.000000 8.688499 0.000000
								}
							}
						}
						JOINT newVegas:Right_CapeB
						{
							OFFSET -26.118187 -8.608795 -7.079266
							CHANNELS 3 Xrotation Yrotation Zrotation
							JOINT newVegas:Right_CapeB1
							{
								OFFSET 0.000000 -8.688499 0.000000
								CHANNELS 3 Xrotation Yrotation Zrotation
								End Site
								{
									OFFSET 0.000000 8.688499 0.000000
								}
							}
						}
					}
				}
				JOINT newVegas:Left_Collar
				{
					OFFSET 18.625099 8.655502 8.828100
					CHANNELS 3 Xrotation Yrotation Zrotation
					JOINT newVegas:Left_Collar1
					{
						OFFSET 14.783401 10.540405 -1.259500
						CHANNELS 3 Xrotation Yrotation Zrotation
						End Site
						{
							OFFSET 0.000000 18.199875 0.000000
						}
					}
				}
				JOINT newVegas:Collar_Back
				{
					OFFSET 0.000000 15.630707 -20.132601
					CHANNELS 3 Xrotation Yrotation Zrotation
					End Site
					{
						OFFSET 0.000000 22.523010 0.000000
					}
				}
				JOINT newVegas:Left_Peck
				{
					OFFSET 17.239599 -5.132599 25.482599
					CHANNELS 3 Xrotation Yrotation Zrotation
					End Site
					{
						OFFSET 0.000000 22.523010 0.000000
					}
				}
				JOINT newVegas:Right_Peck
				{
					OFFSET -17.239599 -5.132202 25.482599
					CHANNELS 3 Xrotation Yrotation Zrotation
					End Site
					{
						OFFSET 0.000000 22.523010 0.000000
					}
				}
				JOINT newVegas:Right_Collar
				{
					OFFSET -18.625099 8.655792 8.828100
					CHANNELS 3 Xrotation Yrotation Zrotation
					JOINT newVegas:Right_Collar1
					{
						OFFSET -14.783401 10.539993 -1.259500
						CHANNELS 3 Xrotation Yrotation Zrotation
						End Site
						{
							OFFSET 0.000000 18.199631 0.000000
						}
					}
				}
			}
		}
		JOINT newVegas:Belly
		{
			OFFSET 0.000000 -6.540398 9.014299
			CHANNELS 3 Xrotation Yrotation Zrotation
			End Site
			{
				OFFSET 0.000000 11.566666 0.000000
			}
		}
	}
	JOINT newVegas:ElvisFacialAnim_Joint
	{
		OFFSET 1.000000 -95.330101 -8.825800
		CHANNELS 3 Xrotation Yrotation Zrotation
		End Site
		{
			OFFSET 0.000000 35.315800 0.000000
		}
	}
}
MOTION
Frames: 4
Frame Time: 0.033333
0.049113 95.261101 4.396929 -3.753863 -5.231616 -3.176160 -0.000000 -0.000000 0.000000 -14.963807 13.498330 12.522318 20.414143 1.788742 4.639943 -2.576720 1.121136 -9.509561 -0.000000 -0.000000 -0.000000 -0.000001 -0.000001 0.000000 4.370419 -10.110321 2.841764 4.863128 -9.673588 -3.267170 -4.780790 -1.883161 4.145016 0.000000 -0.000000 -0.000000 -0.000000 -0.000002 -0.000000 3.311938 1.522715 2.147247 1.151668 0.345221 1.552798 1.125985 0.367082 1.555886 2.249497 -0.045806 0.187951 2.249466 -0.045805 0.187953 0.000000 -0.000000 0.000000 2.249642 -0.045803 0.187952 2.249425 -0.045805 0.187950 0.000000 0.000000 -0.000000 0.000000 -0.000000 0.000000 1.054864 -17.442457 -12.319360 3.916259 -19.989267 -69.765232 -0.000003 -1.466097 0.000009 -33.230390 -1.364828 -6.186643 -0.663506 2.160351 4.832523 11.867582 25.422712 17.047051 0.000001 -0.000004 -0.000001 0.019854 -0.969579 -7.593529 0.267867 1.752891 -17.375733 0.000001 0.000000 0.000000 -0.076306 2.665770 -15.696827 0.268781 1.755799 -17.405518 -0.000000 -0.000000 -0.000004 0.136913 3.641765 -21.133517 0.386627 2.094789 -20.911900 0.000000 -0.000001 0.000002 0.919024 5.560381 -27.127269 0.268791 1.755833 -17.405878 0.000001 -0.000005 -0.000006 -0.000002 0.000000 0.000000 -0.000002 0.000000 0.000000 -0.000003 0.000000 0.000000 -0.000002 0.000000 0.000000 -0.000002 0.000000 0.000000 -0.000002 0.000000 0.000000 -0.000003 -0.000000 0.000000 1.201659 15.343520 14.705995 13.158866 27.555133 58.785164 -0.000005 6.693728 0.000007 -20.179092 -0.514089 6.782819 -1.665254 -0.174477 -4.219010 12.710906 -29.825336 -16.130959 0.000002 -0.000001 -0.000002 0.038596 1.262304 6.823756 0.213721 -1.396036 17.407022 -0.000002 0.000001 0.000003 -0.136221 -2.205102 14.998882 0.214443 -1.398344 17.436892 0.000002 -0.000002 -0.000001 0.030609 -3.075756 20.451041 0.308452 -1.668282 20.948525 0.000000 0.000002 0.000004 0.748876 -4.885257 26.473774 0.214457 -1.398366 17.437237 -0.000000 0.000002 0.000000 0.000001 0.000000 -0.000001 0.000001 0.000000 -0.000000 0.000001 0.000000 -0.000000 -0.000000 0.000000 0.000001 -0.000000 0.000000 0.000001 -0.000000 0.000000 0.000001 -0.000000 -0.000000 0.000001 -0.000000 0.000000 -0.000000 -0.000000 0.000000 -0.000000 -0.000000 0.000000 -0.000000 -0.000000 0.000000 -0.000000 -0.000000 0.000000 -0.000000 -0.000000 0.000000 -0.000000 -0.000000 0.000000 -0.000000 0.000000 -0.000000 -0.000000 -0.000000 -0.000000 0.000000 
0.043476 95.251541 4.407578 -3.732105 -5.256926 -3.180538 0.000000 0.000000 -0.000000 -14.997922 13.494932 12.536147 20.462892 1.790467 4.656817 -2.612687 1.128495 -9.542763 0.000000 -0.000000 -0.000000 -0.000000 -0.000000 0.000000 4.303645 -10.100227 2.838005 4.957635 -9.658782 -3.257173 -4.830497 -1.881745 4.142446 -0.000000 -0.000000 -0.000000 -0.000001 0.000002 -0.000000 3.311965 1.522789 2.146230 1.151667 0.345221 1.552798 1.125985 0.367082 1.555886 2.226952 -0.045945 0.194858 2.226946 -0.045945 0.194850 0.000001 -0.000000 0.000000 2.226954 -0.045925 0.194854 2.227017 -0.046007 0.194871 -0.000002 0.000000 -0.000000 0.000001 -0.000000 0.000000 1.060304 -17.442138 -12.301216 3.899305 -20.013525 -69.782342 -0.000007 -1.466100 -0.000008 -33.257397 -1.328582 -6.194938 -0.662743 2.177214 4.789432 11.866093 25.432355 17.048919 0.000001 0.000001 -0.000001 0.016064 -0.992547 -7.606130 0.268482 1.754844 -17.395643 0.000003 -0.000000 0.000002 -0.092924 2.619204 -15.841768 0.270169 1.760210 -17.450667 -0.000001 -0.000000 -0.000002 0.136347 3.639202 -21.108181 0.386083 2.093379 -20.897198 0.000001 -0.000001 -0.000001 0.906310 5.536201 -27.103748 0.268589 1.755187 -17.399289 -0.000000 -0.000002 -0.000001 -0.000001 0.000000 -0.000000 -0.000001 0.000000 -0.000000 -0.000001 0.000000 0.000000 0.000002 0.000001 0.000001 0.000002 0.000001 0.000001 0.000002 0.000001 0.000001 0.000000 0.000001 0.000001 1.198813 15.343747 14.716756 13.298821 27.528601 58.270789 0.000009 6.710427 -0.000006 -20.134595 -0.516378 6.810944 -1.708745 -0.091747 -4.234482 12.627326 -29.667948 -16.147484 0.000002 -0.000004 0.000001 0.052942 1.214838 6.696270 0.215597 -1.401995 17.483896 0.000002 0.000001 -0.000002 -0.129906 -2.243199 15.162754 0.213477 -1.395242 17.396936 0.000002 0.000000 0.000002 0.025779 -3.065656 20.514704 0.307309 -1.665311 20.909449 -0.000002 0.000002 0.000003 0.742228 -4.869693 26.581787 0.217932 -1.409372 17.579012 0.000000 0.000002 -0.000002 0.000003 -0.000000 0.000000 0.000003 -0.000000 0.000000 0.000003 -0.000000 0.000000 0.000002 0.000001 0.000001 0.000002 0.000001 0.000001 0.000002 0.000001 0.000001 0.000002 0.000001 0.000001 0.000000 -0.000000 -0.000000 0.000000 -0.000000 -0.000000 0.000000 -0.000000 -0.000000 0.000000 -0.000000 -0.000000 0.000000 -0.000000 -0.000000 0.000000 -0.000000 -0.000000 0.000000 -0.000000 -0.000000 -0.000000 0.000000 -0.000000 0.000000 0.000000 -0.000000 
0.035752 95.237289 4.424300 -3.719700 -5.307003 -3.195856 -0.000000 -0.000000 0.000000 -15.033373 13.488376 12.568051 20.566359 1.823158 4.676297 -2.691107 1.141680 -9.593488 0.000000 0.000000 -0.000000 -0.000001 0.000000 0.000000 4.222296 -10.077968 2.834466 5.095901 -9.635453 -3.241903 -4.899223 -1.876254 4.140907 0.000000 -0.000002 -0.000000 -0.000001 -0.000002 -0.000001 3.312042 1.523084 2.143405 1.151667 0.345223 1.562320 1.125986 0.367080 1.565462 2.205472 -0.046147 0.204118 2.205471 -0.046147 0.204117 -0.000000 0.000000 0.000000 2.205548 -0.046149 0.204120 2.205474 -0.046148 0.204118 0.000001 0.000000 -0.000000 -0.000000 0.000000 0.000000 1.065236 -17.441844 -12.284762 3.895183 -20.035093 -69.804800 0.000001 -1.466115 -0.000004 -33.276869 -1.304580 -6.183598 -0.660879 2.203810 4.775413 11.861354 25.462908 17.054945 0.000003 -0.000003 -0.000001 0.014212 -0.964983 -7.680959 0.268377 1.754499 -17.392156 -0.000002 0.000000 -0.000000 -0.090894 2.627258 -15.851481 0.269929 1.759457 -17.442966 -0.000000 0.000000 -0.000002 0.137680 3.645244 -21.167940 0.386246 2.093780 -20.901398 0.000001 0.000001 0.000004 0.920950 5.563762 -27.143800 0.267627 1.752129 -17.367960 -0.000001 -0.000005 -0.000001 0.000001 0.000000 0.000001 0.000001 0.000000 0.000001 0.000000 0.000001 0.000001 0.000002 -0.000001 0.000001 0.000002 -0.000001 0.000000 0.000002 -0.000001 0.000001 0.000000 -0.000001 0.000000 1.190542 15.359859 14.747813 13.465216 27.467126 57.673366 -0.000008 6.736013 0.000001 -20.151442 -0.498462 6.833538 -1.806370 0.101463 -4.211215 12.497741 -29.422611 -16.172259 0.000002 -0.000003 0.000001 0.082467 1.239397 6.236686 0.217540 -1.408154 17.563097 -0.000000 0.000000 -0.000001 -0.119329 -2.285018 15.194007 0.211999 -1.390528 17.336200 -0.000001 -0.000000 0.000002 0.011882 -3.031091 20.571107 0.304326 -1.657486 20.806633 -0.000002 0.000001 -0.000000 0.733193 -4.849664 26.684507 0.217242 -1.407201 17.550979 -0.000002 -0.000000 -0.000002 0.000001 0.000001 -0.000001 0.000000 0.000000 -0.000001 0.000001 0.000001 -0.000001 0.000001 0.000000 0.000001 0.000002 0.000001 0.000001 0.000001 0.000000 0.000001 0.000002 0.000001 0.000001 0.000000 -0.000000 -0.000000 0.000000 -0.000000 -0.000000 0.000000 -0.000000 -0.000000 0.000000 -0.000000 -0.000000 0.000000 -0.000000 -0.000000 0.000000 -0.000000 -0.000000 0.000000 -0.000000 -0.000000 -0.000000 0.000000 -0.000000 -0.000000 -0.000000 0.000000 
0.024958 95.221344 4.450105 -3.719449 -5.394039 -3.221313 0.000000 0.000000 0.000000 -15.051813 13.481341 12.621435 20.700393 1.892713 4.688466 -2.802145 1.157380 -9.658893 -0.000000 -0.000001 0.000000 -0.000000 0.000000 0.000001 4.150735 -10.055238 2.831296 5.240928 -9.581135 -3.219550 -4.971351 -1.867240 4.135774 0.000000 0.000000 0.000000 0.000000 0.000001 -0.000001 3.312128 1.523508 2.144129 1.151668 0.345222 1.573917 1.125986 0.367081 1.576855 2.185794 -0.049078 0.215804 2.185796 -0.049078 0.215803 0.000001 -0.000000 -0.000000 2.185797 -0.049078 0.215804 2.185862 -0.049082 0.215805 0.000001 -0.000000 0.000000 0.000001 -0.000000 -0.000000 1.069976 -17.441561 -12.268940 3.911725 -20.055484 -69.834415 -0.000009 -1.466103 0.000004 -33.271299 -1.285357 -6.183656 -0.660408 2.209856 4.775270 11.863956 25.473131 17.056299 0.000002 -0.000001 -0.000003 0.011178 -0.967020 -7.719924 0.267803 1.752690 -17.373693 -0.000000 -0.000000 0.000001 -0.097810 2.613524 -15.971231 0.271284 1.763748 -17.486881 0.000000 -0.000001 -0.000002 0.138660 3.648294 -21.180046 0.386333 2.094013 -20.903825 0.000000 -0.000002 0.000001 0.918519 5.558484 -27.170510 0.267196 1.750733 -17.353725 0.000001 -0.000003 -0.000002 -0.000001 -0.000000 -0.000001 -0.000001 -0.000000 -0.000001 -0.000002 -0.000000 -0.000001 -0.000001 0.000000 -0.000001 -0.000001 0.000000 -0.000001 -0.000001 0.000000 -0.000001 -0.000003 0.000000 -0.000001 1.177389 15.410642 14.811310 13.687332 27.370598 56.983479 -0.000001 6.792158 0.000003 -20.353306 -0.419212 6.815017 -1.944373 0.363687 -4.129897 12.240642 -28.939819 -16.231673 -0.000002 -0.000003 0.000001 0.133480 1.195136 5.762772 0.219861 -1.415427 17.656937 -0.000000 0.000001 -0.000003 -0.099346 -2.372031 15.359299 0.214348 -1.398023 17.432746 0.000004 -0.000000 0.000003 -0.014783 -2.974683 20.861464 0.305200 -1.659784 20.836889 -0.000000 -0.000001 0.000000 0.740996 -4.861012 26.892809 0.214154 -1.397393 17.424588 -0.000001 0.000003 0.000000 -0.000000 -0.000000 -0.000000 -0.000004 -0.000000 -0.000000 -0.000000 -0.000000 -0.000000 0.000000 0.000001 -0.000000 0.000000 0.000000 -0.000000 0.000000 0.000001 -0.000000 0.000000 -0.000000 -0.000000 -0.000000 0.000000 -0.000000 -0.000000 0.000000 -0.000000 -0.000000 0.000000 -0.000000 -0.000000 0.000000 -0.000000 -0.000000 0.000000 -0.000000 -0.000000 0.000000 -0.000000 -0.000000 0.000000 -0.000000 -0.000000 0.000000 0.000000 0.000000 0.000000 0.000000 
